<?xml version="1.0" encoding="UTF-8" standalone="no"?><!DOCTYPE svg PUBLIC "-//W3C//DTD SVG 1.1//EN" "http://www.w3.org/Graphics/SVG/1.1/DTD/svg11.dtd"><svg width="100%" height="100%" viewBox="0 0 120 120" version="1.1" xmlns="http://www.w3.org/2000/svg" xmlns:xlink="http://www.w3.org/1999/xlink" xml:space="preserve" xmlns:serif="http://www.serif.com/" style="fill-rule:evenodd;clip-rule:evenodd;stroke-linejoin:round;stroke-miterlimit:2;"><g id="E"></g><g id="D"></g><g id="C"></g><g id="B"></g><rect id="A3" x="0" y="0" width="120" height="120" style="fill:none;"/><path d="M95.168,72.398c-5.114,14.49 -18.937,24.885 -35.168,24.885c-20.577,0 -37.283,-16.706 -37.283,-37.283c0,-20.577 16.706,-37.283 37.283,-37.283c20.577,0 37.283,16.706 37.283,37.283c0,1.397 -0.077,2.776 -0.227,4.133l-65.781,0c2.008,14.061 14.113,24.885 28.725,24.885c11.582,0 21.588,-6.8 26.239,-16.62l8.929,0Zm-63.893,-16.531c2.008,-14.061 14.113,-24.885 28.725,-24.885c14.612,0 26.717,10.824 28.725,24.885l-57.45,0Z" style="fill:#676666;"/><path d="M101.875,98.698c-10.418,11.269 -25.329,18.331 -41.875,18.331c-31.475,0 -57.029,-25.554 -57.029,-57.029c0,-31.475 25.554,-57.029 57.029,-57.029c31.475,0 57.029,25.554 57.029,57.029l0,57.029l-15.154,0l0,-18.331Zm-41.875,-80.573c23.111,0 41.875,18.764 41.875,41.875c0,23.111 -18.764,41.875 -41.875,41.875c-23.111,0 -41.875,-18.764 -41.875,-41.875c0,-23.111 18.764,-41.875 41.875,-41.875Z" style="fill:#676666;"/></svg>