<?xml version="1.0" encoding="UTF-8" standalone="no"?><!DOCTYPE svg PUBLIC "-//W3C//DTD SVG 1.1//EN" "http://www.w3.org/Graphics/SVG/1.1/DTD/svg11.dtd"><svg width="100%" height="100%" viewBox="0 0 300 300" version="1.1" xmlns="http://www.w3.org/2000/svg" xmlns:xlink="http://www.w3.org/1999/xlink" xml:space="preserve" xmlns:serif="http://www.serif.com/" style="fill-rule:evenodd;clip-rule:evenodd;stroke-linejoin:round;stroke-miterlimit:2;"><g><path d="M167.562,125.217c8.225,-5.605 13.622,-15.047 13.622,-25.74c0,-17.211 -13.973,-31.184 -31.185,-31.184c-17.1,0 -31.005,13.793 -31.182,30.849c-0.049,4.67 -3.848,8.43 -8.518,8.43l-28.968,0c-2.268,0 -4.442,-0.904 -6.041,-2.513c-1.599,-1.608 -2.49,-3.788 -2.477,-6.056c0.255,-42.381 34.743,-76.713 77.186,-76.713c42.601,0 77.188,34.586 77.188,77.187c0,10.493 -2.1,20.498 -5.917,29.62l-0.02,0.046c-6.3,15.132 -17.287,27.833 -31.187,36.215l-2.919,1.775c-0.235,0.143 -0.477,0.274 -0.725,0.394l-1.228,0.592c-0.992,0.53 -2.915,2.411 -2.908,2.404c-6.328,5.701 -10.305,13.959 -10.305,23.138c0,4.533 0.968,8.842 2.712,12.73c1.182,2.636 0.948,5.691 -0.622,8.116c-1.57,2.425 -4.262,3.889 -7.15,3.889l-30.495,0c-3.931,0 -7.352,-2.69 -8.278,-6.511c-1.418,-5.846 -2.17,-11.948 -2.17,-18.224c0,-10.492 2.1,-20.498 5.918,-29.62l0.019,-0.046c6.307,-15.147 17.31,-27.858 31.2,-36.223l2.906,-1.766c0.236,-0.143 0.478,-0.275 0.726,-0.394l0.818,-0.395Zm46.457,-0.909c3.008,-7.701 4.65,-16.076 4.65,-24.831c0,-37.899 -30.77,-68.669 -68.67,-68.669c-37.759,0 -68.441,30.543 -68.668,68.246l28.968,0c0.225,-21.716 17.928,-39.28 39.7,-39.28c21.913,0 39.703,17.791 39.703,39.703c0,13.822 -7.077,26.003 -17.815,33.1l-0.063,0.042l-1.382,0.666l-2.906,1.766c-12.383,7.458 -22.168,18.769 -27.773,32.249l-0.62,1.531c-3.007,7.701 -4.649,16.075 -4.649,24.83c0,5.585 0.668,11.014 1.929,16.217l30.495,0c-2.222,-4.953 -3.458,-10.442 -3.458,-16.217c0,-11.69 5.063,-22.206 13.121,-29.466c0,0 3.168,-2.848 4.702,-3.647l0.055,-0.029l1.382,-0.665l2.906,-1.767l1.154,-0.71c9.994,-6.296 18.217,-15.134 23.802,-25.594l1.251,2.284l1.328,-7.671l0.238,-0.557l0.62,-1.531Z" style="fill:#f2f2f2;"/><path d="M152.237,224.609c-14.654,0 -26.55,11.897 -26.55,26.551c0,14.653 11.896,26.55 26.55,26.55c14.654,0 26.55,-11.897 26.55,-26.55c0,-14.654 -11.896,-26.551 -26.55,-26.551Zm0,8.519c9.952,0 18.032,8.08 18.032,18.032c0,9.952 -8.08,18.032 -18.032,18.032c-9.952,0 -18.032,-8.08 -18.032,-18.032c0,-9.952 8.08,-18.032 18.032,-18.032Z" style="fill:#f2f2f2;"/></g></svg>