<?xml version="1.0" encoding="UTF-8" standalone="no"?><!DOCTYPE svg PUBLIC "-//W3C//DTD SVG 1.1//EN" "http://www.w3.org/Graphics/SVG/1.1/DTD/svg11.dtd"><svg width="100%" height="100%" viewBox="0 0 300 300" version="1.1" xmlns="http://www.w3.org/2000/svg" xmlns:xlink="http://www.w3.org/1999/xlink" xml:space="preserve" xmlns:serif="http://www.serif.com/" style="fill-rule:evenodd;clip-rule:evenodd;stroke-linejoin:round;stroke-miterlimit:2;"><path d="M285,22.186c0,-3.966 -3.22,-7.186 -7.186,-7.186l-255.628,0c-3.966,0 -7.186,3.22 -7.186,7.186l0,255.628c0,3.966 3.22,7.186 7.186,7.186l255.628,0c3.966,0 7.186,-3.22 7.186,-7.186l0,-255.628Zm-215.916,204.423c0,2.377 1.93,4.307 4.307,4.307l153.218,0c2.377,0 4.307,-1.93 4.307,-4.307l0,-153.218c0,-2.377 -1.93,-4.307 -4.307,-4.307l-153.218,0c-2.377,0 -4.307,1.93 -4.307,4.307l0,153.218Z" style="fill:url(#_Linear1);"/><rect x="79.084" y="79.084" width="141.832" height="141.832" style="fill:url(#_Linear2);"/><defs><linearGradient id="_Linear1" x1="0" y1="0" x2="1" y2="0" gradientUnits="userSpaceOnUse" gradientTransform="matrix(267.23,269.674,-269.674,267.23,14.0854,11.1658)"><stop offset="0" style="stop-color:#0df;stop-opacity:1"/><stop offset="1" style="stop-color:#ff7e00;stop-opacity:1"/></linearGradient><linearGradient id="_Linear2" x1="0" y1="0" x2="1" y2="0" gradientUnits="userSpaceOnUse" gradientTransform="matrix(-267.23,-269.674,269.674,-267.23,285.915,288.834)"><stop offset="0" style="stop-color:#0df;stop-opacity:1"/><stop offset="1" style="stop-color:#ff7e00;stop-opacity:1"/></linearGradient></defs></svg>