<?xml version="1.0" encoding="UTF-8" standalone="no"?><!DOCTYPE svg PUBLIC "-//W3C//DTD SVG 1.1//EN" "http://www.w3.org/Graphics/SVG/1.1/DTD/svg11.dtd"><svg width="100%" height="100%" viewBox="0 0 300 300" version="1.1" xmlns="http://www.w3.org/2000/svg" xmlns:xlink="http://www.w3.org/1999/xlink" xml:space="preserve" xmlns:serif="http://www.serif.com/" style="fill-rule:evenodd;clip-rule:evenodd;stroke-linecap:round;stroke-linejoin:round;stroke-miterlimit:1.5;"><g id="Pre-work"><g><clipPath id="_clip1"><path d="M264.257,115.376l-114.257,75.622l-114.292,-75.646l0,-90.025l228.549,0l0,90.049Z"/></clipPath><g clip-path="url(#_clip1)"><g><path d="M54.514,92.749l22.638,0" style="fill:none;stroke:#f2f2f2;stroke-width:3.5px;"/><path d="M54.514,110.483l72.694,0" style="fill:none;stroke:#f2f2f2;stroke-width:3.5px;"/><path d="M54.514,119.127l189.806,0" style="fill:none;stroke:#f2f2f2;stroke-width:3.5px;"/><path d="M54.514,126.852l189.806,0" style="fill:none;stroke:#f2f2f2;stroke-width:3.5px;"/><path d="M54.514,134.938l189.806,0" style="fill:none;stroke:#f2f2f2;stroke-width:3.5px;"/><path d="M54.514,142.892l189.806,0" style="fill:none;stroke:#f2f2f2;stroke-width:3.5px;"/><path d="M54.514,151.181l189.806,0" style="fill:none;stroke:#f2f2f2;stroke-width:3.5px;"/><path d="M54.514,159.212l189.806,0" style="fill:none;stroke:#f2f2f2;stroke-width:3.5px;"/><path d="M54.514,169.085l189.806,0" style="fill:none;stroke:#f2f2f2;stroke-width:3.5px;"/></g><path d="M260.4,32.485c0,-1.933 -1.567,-3.5 -3.5,-3.5l-213.8,0c-1.933,0 -3.5,1.567 -3.5,3.5l0,238.028c0,1.933 1.567,3.5 3.5,3.5l213.8,0c1.933,0 3.5,-1.567 3.5,-3.5l0,-238.028Zm-3.5,0l-213.8,0l0,238.028l213.8,0l0,-238.028Z" style="fill:#f2f2f2;"/></g></g><path d="M150,186.801l129.054,-85.416c1.075,-0.711 2.453,-0.774 3.588,-0.164c1.136,0.61 1.844,1.794 1.844,3.083l0,173.388c0,1.933 -1.567,3.5 -3.5,3.5l-261.972,0c-1.933,0 -3.5,-1.567 -3.5,-3.5l0,-173.388c0,-1.289 0.708,-2.473 1.844,-3.083c1.135,-0.61 2.513,-0.547 3.588,0.164l129.054,85.416Zm-130.986,-82.497l0,173.388l261.972,0l0,-173.388l-130.986,86.694l-130.986,-86.694Z" style="fill:#f2f2f2;"/><clipPath id="_clip2"><path d="M298,3l-296,0l0,289.703l296,0l0,-289.703Zm-41.1,29.485l-213.8,0l0,186.699l213.8,0l0,-186.699Z"/></clipPath><g clip-path="url(#_clip2)"><path d="M151.932,14.691c-1.171,-0.775 -2.693,-0.775 -3.864,0l-130.985,86.694c-0.98,0.648 -1.569,1.744 -1.569,2.919l0,173.388c0,1.933 1.567,3.5 3.5,3.5l261.972,0c1.933,0 3.5,-1.567 3.5,-3.5l0,-173.388c0,-1.175 -0.589,-2.271 -1.569,-2.919l-130.985,-86.694Zm-1.932,2.919l130.986,86.694l0,173.388l-261.972,0l0,-173.388l130.986,-86.694Z" style="fill:#f2f2f2;"/></g></g></svg>