<?xml version="1.0" encoding="UTF-8" standalone="no"?><!DOCTYPE svg PUBLIC "-//W3C//DTD SVG 1.1//EN" "http://www.w3.org/Graphics/SVG/1.1/DTD/svg11.dtd"><svg width="100%" height="100%" viewBox="0 0 300 300" version="1.1" xmlns="http://www.w3.org/2000/svg" xmlns:xlink="http://www.w3.org/1999/xlink" xml:space="preserve" xmlns:serif="http://www.serif.com/" style="fill-rule:evenodd;clip-rule:evenodd;stroke-linejoin:round;stroke-miterlimit:2;"><g><path d="M71.021,35.15l2.164,-7.411c0.325,-1.114 1.271,-1.936 2.42,-2.105c5.664,-0.828 11.419,-0.828 17.083,0c1.149,0.169 2.095,0.991 2.42,2.105l2.164,7.411c4.249,1.141 8.331,2.831 12.141,5.029l6.771,-3.71c1.018,-0.558 2.268,-0.471 3.199,0.223c4.591,3.419 8.661,7.488 12.08,12.08c0.693,0.931 0.78,2.181 0.223,3.199l-3.71,6.77c2.198,3.811 3.888,7.893 5.029,12.141l7.41,2.165c1.115,0.325 1.937,1.271 2.105,2.419c0.829,5.665 0.829,11.42 0,17.084c-0.168,1.149 -0.99,2.094 -2.105,2.42l-7.41,2.164c-1.141,4.249 -2.832,8.33 -5.029,12.141l3.71,6.77c0.557,1.019 0.47,2.269 -0.223,3.2c-3.419,4.591 -7.489,8.661 -12.08,12.08c-0.931,0.693 -2.181,0.78 -3.199,0.222l-6.771,-3.709c-3.811,2.197 -7.892,3.888 -12.141,5.029l-2.164,7.41c-0.325,1.115 -1.271,1.937 -2.42,2.105c-5.664,0.829 -11.419,0.829 -17.083,0c-1.149,-0.168 -2.095,-0.99 -2.42,-2.105l-2.164,-7.41c-4.249,-1.141 -8.331,-2.832 -12.141,-5.029l-6.771,3.709c-1.018,0.558 -2.268,0.471 -3.199,-0.222c-4.591,-3.419 -8.661,-7.489 -12.08,-12.08c-0.694,-0.931 -0.78,-2.181 -0.223,-3.2l3.71,-6.77c-2.198,-3.811 -3.888,-7.892 -5.029,-12.141l-7.41,-2.164c-1.115,-0.326 -1.937,-1.271 -2.105,-2.42c-0.829,-5.664 -0.829,-11.419 0,-17.084c0.168,-1.148 0.99,-2.094 2.105,-2.419l7.41,-2.165c1.141,-4.248 2.831,-8.33 5.029,-12.141l-3.71,-6.77c-0.557,-1.018 -0.471,-2.268 0.223,-3.199c3.419,-4.592 7.489,-8.661 12.08,-12.08c0.931,-0.694 2.181,-0.781 3.199,-0.223l6.771,3.71c3.811,-2.198 7.892,-3.888 12.141,-5.029Zm21.238,-6.578c-5.38,-0.787 -10.845,-0.787 -16.225,0l-2.641,9.043c-5.113,1.185 -9.994,3.207 -14.448,5.985l-8.262,-4.527c-4.36,3.247 -8.225,7.111 -11.472,11.472l4.527,8.262c-2.777,4.453 -4.799,9.335 -5.984,14.448l-9.044,2.641c-0.787,5.38 -0.787,10.845 0,16.224l9.044,2.642c1.185,5.112 3.207,9.994 5.984,14.447l-4.527,8.263c3.247,4.36 7.112,8.225 11.472,11.472l8.262,-4.527c4.454,2.777 9.335,4.799 14.448,5.984l2.641,9.044c5.38,0.787 10.845,0.787 16.225,0l2.641,-9.044c5.113,-1.185 9.994,-3.207 14.448,-5.984l8.262,4.527c4.36,-3.247 8.225,-7.112 11.472,-11.472l-4.527,-8.263c2.777,-4.453 4.799,-9.335 5.984,-14.447l9.044,-2.642c0.787,-5.379 0.787,-10.844 0,-16.224l-9.044,-2.641c-1.185,-5.113 -3.207,-9.995 -5.984,-14.448l4.527,-8.262c-3.247,-4.361 -7.112,-8.225 -11.472,-11.472l-8.262,4.527c-4.454,-2.778 -9.335,-4.8 -14.448,-5.985l-2.641,-9.043Zm-8.113,44.231c6.185,0 11.206,5.021 11.206,11.205c0,6.185 -5.021,11.206 -11.206,11.206c-6.184,0 -11.205,-5.021 -11.205,-11.206c0,-6.184 5.021,-11.205 11.205,-11.205Zm0,2.968c4.547,0 8.237,3.691 8.237,8.237c0,4.546 -3.69,8.237 -8.237,8.237c-4.546,0 -8.236,-3.691 -8.236,-8.237c0,-4.546 3.69,-8.237 8.236,-8.237Z" style="fill:#f2f2f2;"/><path d="M84.146,7.815c-42.052,0 -76.193,34.141 -76.193,76.193c0,42.052 34.141,76.194 76.193,76.194c42.053,0 76.194,-34.142 76.194,-76.194c0,-42.052 -34.141,-76.193 -76.194,-76.193Zm0,6.927c38.23,0 69.267,31.037 69.267,69.266c0,38.23 -31.037,69.267 -69.267,69.267c-38.229,0 -69.266,-31.037 -69.266,-69.267c0,-38.229 31.037,-69.266 69.266,-69.266Z" style="fill:#f2f2f2;"/><path d="M212.975,34.356l1.378,-6.709c0.262,-1.276 1.325,-2.232 2.621,-2.358c3.795,-0.368 7.617,-0.368 11.412,0c1.296,0.126 2.358,1.082 2.62,2.358l1.378,6.709c2.278,0.446 4.522,1.047 6.717,1.8l4.549,-5.122c0.864,-0.973 2.263,-1.27 3.448,-0.731c3.471,1.578 6.78,3.489 9.883,5.706c1.059,0.757 1.501,2.116 1.091,3.352l-2.162,6.5c1.75,1.524 3.393,3.167 4.917,4.917l6.5,-2.161c1.236,-0.411 2.595,0.031 3.352,1.09c2.217,3.103 4.128,6.412 5.706,9.883c0.539,1.185 0.242,2.584 -0.731,3.448l-5.122,4.549c0.753,2.195 1.355,4.439 1.8,6.717l6.709,1.378c1.276,0.262 2.232,1.324 2.358,2.621c0.368,3.794 0.368,7.616 0,11.411c-0.126,1.296 -1.082,2.359 -2.358,2.621l-6.709,1.378c-0.445,2.278 -1.047,4.522 -1.8,6.717l5.122,4.548c0.973,0.865 1.27,2.263 0.731,3.448c-1.578,3.471 -3.489,6.781 -5.706,9.883c-0.757,1.059 -2.116,1.502 -3.352,1.091l-6.5,-2.161c-1.524,1.75 -3.167,3.392 -4.917,4.917l2.162,6.5c0.41,1.235 -0.032,2.594 -1.091,3.351c-3.103,2.217 -6.412,4.128 -9.883,5.706c-1.185,0.539 -2.584,0.243 -3.448,-0.731l-4.549,-5.122c-2.195,0.754 -4.439,1.355 -6.717,1.8l-1.378,6.71c-0.262,1.275 -1.324,2.231 -2.62,2.357c-3.795,0.369 -7.617,0.369 -11.412,0c-1.296,-0.126 -2.359,-1.082 -2.621,-2.357l-1.378,-6.71c-2.278,-0.445 -4.522,-1.046 -6.717,-1.8l-4.548,5.122c-0.865,0.974 -2.263,1.27 -3.448,0.731c-3.471,-1.578 -6.781,-3.489 -9.883,-5.706c-1.059,-0.757 -1.502,-2.116 -1.091,-3.351l2.161,-6.5c-1.75,-1.525 -3.392,-3.167 -4.917,-4.917l-6.5,2.161c-1.235,0.411 -2.594,-0.032 -3.351,-1.091c-2.217,-3.102 -4.128,-6.412 -5.706,-9.883c-0.539,-1.185 -0.243,-2.583 0.731,-3.448l5.122,-4.548c-0.754,-2.195 -1.355,-4.439 -1.8,-6.717l-6.71,-1.378c-1.275,-0.262 -2.231,-1.325 -2.357,-2.621c-0.369,-3.795 -0.369,-7.617 0,-11.411c0.126,-1.297 1.082,-2.359 2.357,-2.621l6.71,-1.378c0.445,-2.278 1.046,-4.522 1.8,-6.717l-5.122,-4.549c-0.974,-0.864 -1.27,-2.263 -0.731,-3.448c1.578,-3.471 3.489,-6.78 5.706,-9.883c0.757,-1.059 2.116,-1.501 3.351,-1.09l6.5,2.161c1.525,-1.75 3.167,-3.393 4.917,-4.917l-2.161,-6.5c-0.411,-1.236 0.032,-2.595 1.091,-3.352c3.102,-2.217 6.412,-4.128 9.883,-5.706c1.185,-0.539 2.583,-0.242 3.448,0.731l4.548,5.122c2.195,-0.753 4.439,-1.354 6.717,-1.8Zm15.123,-6.112c-3.604,-0.35 -7.233,-0.35 -10.837,0l-1.785,8.689c-3.454,0.529 -6.84,1.436 -10.095,2.705l-5.891,-6.632c-3.296,1.498 -6.439,3.313 -9.385,5.418l2.799,8.418c-2.727,2.185 -5.206,4.663 -7.391,7.39l-8.417,-2.799c-2.105,2.946 -3.92,6.09 -5.419,9.386l6.633,5.89c-1.269,3.256 -2.177,6.642 -2.705,10.096l-8.689,1.785c-0.351,3.604 -0.351,7.233 0,10.837l8.689,1.785c0.528,3.454 1.436,6.84 2.705,10.095l-6.633,5.891c1.499,3.296 3.314,6.439 5.419,9.385l8.417,-2.799c2.185,2.727 4.664,5.206 7.391,7.391l-2.799,8.417c2.946,2.105 6.089,3.92 9.385,5.419l5.891,-6.633c3.255,1.269 6.641,2.177 10.095,2.705l1.785,8.69c3.604,0.35 7.233,0.35 10.837,0l1.785,-8.69c3.455,-0.528 6.84,-1.436 10.096,-2.705l5.89,6.633c3.296,-1.499 6.44,-3.314 9.386,-5.419l-2.799,-8.417c2.727,-2.185 5.205,-4.664 7.39,-7.391l8.418,2.799c2.105,-2.946 3.92,-6.089 5.418,-9.385l-6.632,-5.891c1.269,-3.255 2.176,-6.641 2.705,-10.095l8.689,-1.785c0.35,-3.604 0.35,-7.233 0,-10.837l-8.689,-1.785c-0.529,-3.454 -1.436,-6.84 -2.705,-10.096l6.632,-5.89c-1.498,-3.296 -3.313,-6.44 -5.418,-9.386l-8.418,2.799c-2.185,-2.727 -4.663,-5.205 -7.39,-7.39l2.799,-8.418c-2.946,-2.105 -6.09,-3.92 -9.386,-5.418l-5.89,6.632c-3.256,-1.269 -6.641,-2.176 -10.096,-2.705l-1.785,-8.689Zm-5.418,44.559c6.184,0 11.205,5.021 11.205,11.205c0,6.185 -5.021,11.206 -11.205,11.206c-6.185,0 -11.206,-5.021 -11.206,-11.206c0,-6.184 5.021,-11.205 11.206,-11.205Zm0,2.968c4.546,0 8.237,3.691 8.237,8.237c0,4.546 -3.691,8.237 -8.237,8.237c-4.546,0 -8.237,-3.691 -8.237,-8.237c0,-4.546 3.691,-8.237 8.237,-8.237Z" style="fill:#f2f2f2;"/><path d="M60.919,177.598l4.466,-9.95c0.353,-0.787 1.031,-1.381 1.858,-1.628c11.028,-3.298 22.779,-3.298 33.807,0c0.827,0.247 1.505,0.841 1.858,1.628l4.466,9.95c9.314,4.813 16.903,12.402 21.716,21.716l9.95,4.466c0.787,0.353 1.381,1.032 1.628,1.858c3.298,11.028 3.298,22.779 0,33.807c-0.247,0.827 -0.841,1.505 -1.628,1.858l-9.95,4.466c-4.813,9.314 -12.402,16.903 -21.716,21.716l-4.466,9.95c-0.353,0.787 -1.031,1.381 -1.858,1.629c-11.028,3.298 -22.779,3.298 -33.807,0c-0.827,-0.248 -1.505,-0.842 -1.858,-1.629l-4.466,-9.95c-9.314,-4.813 -16.903,-12.401 -21.716,-21.716l-9.95,-4.466c-0.787,-0.353 -1.381,-1.031 -1.628,-1.858c-3.298,-11.028 -3.298,-22.779 0,-33.807c0.247,-0.826 0.841,-1.505 1.628,-1.858l9.95,-4.466c4.813,-9.314 12.402,-16.903 21.716,-21.716Zm39.281,-8.734c-10.473,-3.132 -21.634,-3.132 -32.107,0l-4.898,10.911c-9.491,4.65 -17.166,12.324 -21.815,21.815l-10.911,4.898c-3.132,10.473 -3.132,21.634 0,32.107l10.911,4.898c4.649,9.491 12.324,17.166 21.815,21.815l4.898,10.911c10.473,3.132 21.634,3.132 32.107,0l4.898,-10.911c9.491,-4.649 17.166,-12.324 21.815,-21.815l10.911,-4.898c3.132,-10.473 3.132,-21.634 0,-32.107l-10.911,-4.898c-4.649,-9.491 -12.324,-17.165 -21.815,-21.815l-4.898,-10.911Zm-16.054,42.472c6.185,0 11.206,5.021 11.206,11.206c0,6.184 -5.021,11.205 -11.206,11.205c-6.184,0 -11.205,-5.021 -11.205,-11.205c0,-6.185 5.021,-11.206 11.205,-11.206Zm0,2.969c4.547,0 8.237,3.691 8.237,8.237c0,4.546 -3.69,8.236 -8.237,8.236c-4.546,0 -8.236,-3.69 -8.236,-8.236c0,-4.546 3.69,-8.237 8.236,-8.237Z" style="fill:#f2f2f2;"/><path d="M214.338,172.643l1.076,-6.449c0.225,-1.346 1.338,-2.365 2.699,-2.471c3.04,-0.236 6.094,-0.236 9.134,0c1.36,0.106 2.474,1.125 2.698,2.471l1.077,6.449c1.457,0.243 2.903,0.55 4.333,0.921l3.606,-5.454c0.753,-1.138 2.184,-1.616 3.47,-1.159c2.873,1.021 5.663,2.263 8.345,3.715c1.2,0.65 1.802,2.034 1.46,3.355l-1.64,6.329c1.232,0.815 2.428,1.684 3.584,2.603l5.513,-3.515c1.15,-0.733 2.653,-0.588 3.641,0.352c2.21,2.102 4.254,4.371 6.112,6.788c0.832,1.082 0.82,2.591 -0.03,3.659l-4.072,5.115c0.794,1.246 1.533,2.526 2.215,3.836l6.465,-0.969c1.35,-0.202 2.663,0.542 3.184,1.803c1.164,2.818 2.108,5.723 2.823,8.687c0.32,1.327 -0.306,2.7 -1.516,3.33l-5.801,3.017c0.219,1.461 0.373,2.931 0.463,4.405l6.301,1.745c1.315,0.364 2.213,1.578 2.175,2.942c-0.083,3.048 -0.402,6.085 -0.954,9.084c-0.248,1.342 -1.378,2.342 -2.74,2.425l-6.526,0.397c-0.394,1.423 -0.851,2.829 -1.369,4.213l5.047,4.156c1.053,0.868 1.379,2.342 0.791,3.573c-1.316,2.75 -2.843,5.395 -4.568,7.91c-0.771,1.125 -2.211,1.58 -3.488,1.101l-6.123,-2.292c-0.94,1.14 -1.929,2.239 -2.965,3.292l2.92,5.85c0.609,1.221 0.308,2.7 -0.731,3.585c-2.321,1.978 -4.791,3.773 -7.389,5.369c-1.163,0.714 -2.663,0.544 -3.636,-0.413l-4.661,-4.584c-1.322,0.659 -2.672,1.261 -4.047,1.802l0.288,6.531c0.06,1.363 -0.817,2.592 -2.126,2.978c-2.924,0.863 -5.912,1.498 -8.934,1.899c-1.353,0.18 -2.654,-0.586 -3.153,-1.856l-2.394,-6.084c-1.476,0.065 -2.954,0.065 -4.43,0l-2.394,6.084c-0.499,1.27 -1.8,2.036 -3.153,1.856c-3.023,-0.401 -6.01,-1.036 -8.935,-1.899c-1.308,-0.386 -2.185,-1.615 -2.125,-2.978l0.288,-6.531c-1.375,-0.542 -2.725,-1.143 -4.047,-1.802l-4.662,4.584c-0.972,0.957 -2.472,1.127 -3.635,0.413c-2.598,-1.596 -5.069,-3.391 -7.39,-5.369c-1.038,-0.885 -1.34,-2.364 -0.73,-3.585l2.919,-5.85c-1.035,-1.053 -2.025,-2.152 -2.964,-3.292l-6.123,2.292c-1.278,0.479 -2.717,0.024 -3.489,-1.101c-1.724,-2.515 -3.251,-5.16 -4.567,-7.91c-0.589,-1.231 -0.263,-2.705 0.791,-3.573l5.046,-4.156c-0.518,-1.384 -0.974,-2.79 -1.369,-4.213l-6.526,-0.397c-1.362,-0.083 -2.492,-1.083 -2.739,-2.425c-0.553,-2.999 -0.872,-6.036 -0.955,-9.084c-0.037,-1.364 0.86,-2.578 2.175,-2.942l6.301,-1.745c0.09,-1.474 0.245,-2.944 0.463,-4.405l-5.8,-3.017c-1.211,-0.63 -1.836,-2.003 -1.516,-3.33c0.715,-2.964 1.658,-5.869 2.822,-8.687c0.521,-1.261 1.835,-2.005 3.184,-1.803l6.466,0.969c0.682,-1.31 1.421,-2.59 2.215,-3.836l-4.072,-5.115c-0.85,-1.068 -0.863,-2.577 -0.031,-3.659c1.859,-2.417 3.902,-4.686 6.112,-6.788c0.989,-0.94 2.491,-1.085 3.642,-0.352l5.512,3.515c1.157,-0.919 2.352,-1.788 3.584,-2.603l-1.639,-6.329c-0.342,-1.321 0.26,-2.705 1.46,-3.355c2.681,-1.452 5.471,-2.694 8.344,-3.715c1.286,-0.457 2.718,0.021 3.47,1.159l3.607,5.454c1.43,-0.371 2.876,-0.678 4.333,-0.921Zm12.679,-5.96c-2.887,-0.224 -5.787,-0.224 -8.675,0l-1.433,8.587c-2.774,0.338 -5.513,0.92 -8.185,1.739l-4.802,-7.261c-2.728,0.969 -5.378,2.149 -7.924,3.528l2.183,8.428c-2.397,1.437 -4.662,3.083 -6.77,4.918l-7.34,-4.681c-2.099,1.996 -4.039,4.151 -5.805,6.447l5.422,6.811c-1.604,2.288 -3.004,4.713 -4.183,7.246l-8.61,-1.29c-1.105,2.677 -2.001,5.435 -2.68,8.25l7.723,4.017c-0.535,2.743 -0.828,5.527 -0.874,8.322l-8.39,2.323c0.078,2.895 0.382,5.779 0.906,8.627l8.69,0.528c0.627,2.723 1.492,5.386 2.586,7.958l-6.72,5.535c1.249,2.612 2.7,5.124 4.337,7.512l8.153,-3.052c1.681,2.233 3.554,4.314 5.599,6.218l-3.887,7.79c2.204,1.878 4.55,3.583 7.018,5.099l6.207,-6.105c2.443,1.357 5.001,2.496 7.644,3.404l-0.383,8.697c2.777,0.819 5.614,1.422 8.485,1.803l3.187,-8.101c2.784,0.246 5.584,0.246 8.368,0l3.187,8.101c2.871,-0.381 5.708,-0.984 8.485,-1.803l-0.383,-8.697c2.643,-0.908 5.201,-2.047 7.644,-3.404l6.207,6.105c2.467,-1.516 4.814,-3.221 7.018,-5.099l-3.888,-7.79c2.045,-1.904 3.919,-3.985 5.599,-6.218l8.153,3.052c1.638,-2.388 3.088,-4.9 4.338,-7.512l-6.72,-5.535c1.094,-2.572 1.959,-5.235 2.586,-7.958l8.689,-0.528c0.525,-2.848 0.828,-5.732 0.907,-8.627l-8.39,-2.323c-0.047,-2.795 -0.34,-5.579 -0.875,-8.322l7.724,-4.017c-0.679,-2.815 -1.575,-5.573 -2.681,-8.25l-8.609,1.29c-1.179,-2.533 -2.579,-4.958 -4.184,-7.246l5.422,-6.811c-1.765,-2.296 -3.706,-4.451 -5.804,-6.447l-7.341,4.681c-2.107,-1.835 -4.373,-3.481 -6.769,-4.918l2.183,-8.428c-2.546,-1.379 -5.196,-2.559 -7.925,-3.528l-4.802,7.261c-2.672,-0.819 -5.41,-1.401 -8.184,-1.739l-1.434,-8.587Zm-4.337,44.653c6.184,0 11.205,5.021 11.205,11.206c0,6.184 -5.021,11.205 -11.205,11.205c-6.185,0 -11.206,-5.021 -11.206,-11.205c0,-6.185 5.021,-11.206 11.206,-11.206Zm0,2.969c4.546,0 8.237,3.691 8.237,8.237c0,4.546 -3.691,8.236 -8.237,8.236c-4.546,0 -8.237,-3.69 -8.237,-8.236c0,-4.546 3.691,-8.237 8.237,-8.237Z" style="fill:#f2f2f2;"/></g></svg>