<?xml version="1.0" encoding="UTF-8" standalone="no"?>
<!DOCTYPE svg PUBLIC "-//W3C//DTD SVG 1.1//EN" "http://www.w3.org/Graphics/SVG/1.1/DTD/svg11.dtd">
<svg width="100%" height="100%" viewBox="0 0 1000 1000" version="1.1" xmlns="http://www.w3.org/2000/svg" xmlns:xlink="http://www.w3.org/1999/xlink" xml:space="preserve" xmlns:serif="http://www.serif.com/" style="fill-rule:evenodd;clip-rule:evenodd;stroke-linejoin:round;stroke-miterlimit:1.41421;">
    <g transform="matrix(9.57101,0,0,9.57101,869.317,100.464)">
        <path d="M0,83.69C-5.367,85.66 -10.448,87.66 -15.631,89.347C-17.225,89.867 -19.097,89.586 -20.839,89.546C-21.153,89.539 -21.586,88.972 -21.738,88.577C-22.244,87.267 -22.718,85.936 -23.064,84.577C-23.312,83.611 -23.823,83.368 -24.75,83.37C-37.049,83.392 -49.348,83.395 -61.646,83.361C-62.611,83.358 -63.061,83.669 -63.316,84.58C-63.785,86.249 -64.354,87.889 -64.875,89.517L-67.058,89.517C-69.469,81.686 -71.867,73.9 -74.262,66.113C-75.188,63.102 -76.156,60.103 -76.994,57.069C-77.218,56.256 -77.244,55.271 -77.01,54.467C-74.083,44.366 -71.11,34.276 -68.073,24.207C-67.874,23.548 -67.145,22.894 -66.497,22.561C-65.47,22.032 -64.303,21.777 -63.029,21.35C-61.782,25.567 -60.577,29.65 -59.366,33.731C-57.67,39.446 -55.93,45.149 -54.31,50.885C-54.039,51.843 -54.06,53.007 -54.325,53.972C-55.459,58.085 -56.735,62.159 -58.018,66.445L-28.582,66.445C-29.332,63.645 -30.056,60.947 -30.805,58.154C-28.594,57.275 -26.47,56.391 -24.313,55.59C-23.294,55.211 -22.927,54.778 -23.308,53.603C-24.518,49.872 -25.588,46.094 -26.767,42.152C-29.464,43.189 -32.01,44.168 -34.707,45.205C-35.805,41.61 -36.867,38.131 -37.972,34.514C-35.283,33.48 -32.639,32.462 -29.893,31.406C-31.082,27.406 -32.228,23.551 -33.422,19.533C-36.175,20.636 -38.722,21.657 -41.358,22.713C-42.196,19.95 -43.758,17.241 -42.14,14.232C-41.855,13.701 -41.403,13.132 -40.883,12.879C-39.326,12.123 -37.696,11.515 -35.976,10.8C-37.184,6.711 -38.357,2.74 -39.611,-1.506C-47.43,1.443 -55.126,4.346 -63.111,7.359C-62.156,4.147 -61.303,1.208 -60.383,-1.711C-60.28,-2.037 -59.83,-2.343 -59.473,-2.485C-56.65,-3.607 -53.817,-4.706 -50.97,-5.765C-50.349,-5.996 -49.658,-6.148 -48.998,-6.15C-41.552,-6.177 -34.107,-6.167 -26.542,-6.167C-17.729,23.669 -8.891,53.589 0,83.69" style="fill:rgb(83,83,85);"/>
    </g>
</svg>
