<?xml version="1.0" encoding="UTF-8" standalone="no"?><!DOCTYPE svg PUBLIC "-//W3C//DTD SVG 1.1//EN" "http://www.w3.org/Graphics/SVG/1.1/DTD/svg11.dtd"><svg width="100%" height="100%" viewBox="0 0 300 300" version="1.1" xmlns="http://www.w3.org/2000/svg" xmlns:xlink="http://www.w3.org/1999/xlink" xml:space="preserve" xmlns:serif="http://www.serif.com/" style="fill-rule:evenodd;clip-rule:evenodd;stroke-linejoin:round;stroke-miterlimit:2;"><circle cx="150" cy="150" r="116.304" style="fill:#fff;"/><path d="M150,33.696c64.19,0 116.304,52.114 116.304,116.304c0,64.19 -52.114,116.304 -116.304,116.304c-64.19,0 -116.304,-52.114 -116.304,-116.304c0,-64.19 52.114,-116.304 116.304,-116.304Zm0,10c58.671,0 106.304,47.633 106.304,106.304c0,58.671 -47.633,106.304 -106.304,106.304c-58.671,0 -106.304,-47.633 -106.304,-106.304c0,-58.671 47.633,-106.304 106.304,-106.304Z" style="fill:#595959;"/><g><path d="M84.721,186.758c-2.07,1.516 -3.336,3.537 -3.798,6.062c-0.463,2.526 0.01,4.818 1.418,6.877c1.408,2.06 3.339,3.283 5.793,3.672c2.455,0.388 4.717,-0.176 6.786,-1.692l8.75,-6.411c2.07,-1.516 3.336,-3.537 3.798,-6.062c0.462,-2.526 -0.01,-4.818 -1.418,-6.877c-1.408,-2.059 -3.339,-3.283 -5.793,-3.672c-2.455,-0.388 -4.717,0.176 -6.786,1.692l-8.75,6.411Zm7.683,-7.972c2.499,-1.83 5.235,-2.516 8.209,-2.056c2.974,0.46 5.315,1.938 7.022,4.436c1.7,2.486 2.267,5.26 1.7,8.322c-0.566,3.062 -2.099,5.508 -4.597,7.339l-8.751,6.411c-2.499,1.83 -5.237,2.513 -8.215,2.048c-2.977,-0.465 -5.316,-1.941 -7.016,-4.427c-1.707,-2.498 -2.276,-5.275 -1.706,-8.331c0.57,-3.056 2.105,-5.5 4.603,-7.331l8.751,-6.411Z" style="fill-rule:nonzero;"/><path d="M66.25,150.191l31.948,-0.797l-0.023,1.836l-28.793,0.718l-0.025,1.938l-3.123,-2.43l0.016,-1.265Z" style="fill-rule:nonzero;"/><path d="M102.512,128.612c-2.989,-2.858 -4.506,-5.69 -4.551,-8.494c-0.045,-2.805 -0.088,-5.286 -0.131,-7.444c-0.042,-2.158 -0.281,-4.303 -0.717,-6.434c-0.436,-2.131 -1.508,-3.792 -3.214,-4.984c-1.717,-1.198 -3.616,-1.586 -5.697,-1.163c-2.082,0.424 -3.742,1.536 -4.98,3.336c-1.222,1.777 -1.669,3.727 -1.339,5.851c0.289,1.811 1.097,3.297 2.424,4.458l-1.597,1.172c-1.441,-1.391 -2.334,-3.137 -2.679,-5.239c-0.432,-2.648 0.119,-5.087 1.653,-7.317c1.541,-2.241 3.611,-3.624 6.209,-4.148c2.598,-0.523 4.966,-0.039 7.104,1.454c2.127,1.486 3.451,3.558 3.972,6.217c0.366,1.815 0.568,3.799 0.605,5.953c0.037,2.154 0.078,4.58 0.125,7.277c0.047,2.697 0.896,4.949 2.547,6.755l9.823,-14.281l1.457,1.018l-11.014,16.013Z" style="fill-rule:nonzero;"/><path d="M126.29,84.065l-1.429,0.513l-0.584,-1.713c1.167,-0.468 2.075,-0.994 2.725,-1.577c0.649,-0.583 1.252,-1.514 1.807,-2.793c0.555,-1.28 0.612,-2.567 0.17,-3.861c-0.445,-1.307 -1.276,-2.238 -2.491,-2.793c-1.216,-0.555 -2.466,-0.583 -3.751,-0.084c-1.271,0.495 -2.213,1.371 -2.825,2.629c-0.326,0.716 -0.499,1.444 -0.517,2.185l-1.845,-0.016c-0.026,-0.996 0.193,-1.965 0.656,-2.907c0.839,-1.763 2.146,-2.99 3.922,-3.68c1.8,-0.7 3.544,-0.656 5.232,0.132c1.687,0.789 2.831,2.065 3.432,3.829c0.615,1.802 0.619,3.406 0.015,4.813c-0.604,1.406 -1.264,2.442 -1.978,3.108c2.021,-0.096 3.85,0.271 5.487,1.1c2.361,1.195 3.967,3.043 4.819,5.543c0.856,2.513 0.709,4.999 -0.442,7.458c-1.151,2.46 -2.973,4.174 -5.466,5.143c-2.48,0.964 -4.906,0.895 -7.279,-0.21c-1.882,-0.878 -3.292,-2.212 -4.23,-4.003l1.504,-1.297c0.752,1.62 1.939,2.804 3.563,3.552c1.907,0.868 3.849,0.918 5.826,0.15c2.002,-0.778 3.466,-2.152 4.392,-4.122c0.925,-1.969 1.044,-3.963 0.357,-5.981c-0.684,-2.005 -1.969,-3.496 -3.856,-4.473c-1.887,-0.976 -4.291,-1.191 -7.214,-0.645Z" style="fill-rule:nonzero;"/><path d="M177.239,67.985l1.727,0.443l-5.77,20.631l2.935,0.754l-0.498,1.782l-2.936,-0.754l-2.591,9.266l-1.727,-0.443l2.591,-9.266l-12.662,-3.25l18.931,-19.163Zm-1.074,3.841l-14.385,14.303l9.689,2.487l4.696,-16.79Z" style="fill-rule:nonzero;"/><path d="M203.278,95.288c0.583,0.371 1.206,0.813 1.868,1.326c0.648,0.559 1.222,1.147 1.723,1.764c0.917,1.13 1.616,2.37 2.095,3.72c1.086,3.009 1.014,6.001 -0.216,8.976c-0.763,1.858 -1.845,3.389 -3.245,4.592c-0.872,0.749 -1.857,1.368 -2.956,1.858c-2.91,1.296 -5.804,1.375 -8.682,0.237c-1.747,-0.698 -3.179,-1.735 -4.296,-3.112c-0.709,-0.874 -1.291,-1.883 -1.745,-3.028c-0.93,-2.34 -1.1,-4.653 -0.509,-6.94l1.906,0.038c-0.598,1.996 -0.48,4.04 0.354,6.131c0.373,0.936 0.851,1.763 1.435,2.483c0.934,1.151 2.134,2.021 3.599,2.612c2.398,0.958 4.814,0.897 7.248,-0.182c0.93,-0.416 1.759,-0.935 2.485,-1.559c1.162,-0.998 2.061,-2.267 2.695,-3.806c1.018,-2.478 1.084,-4.977 0.201,-7.498c-0.385,-1.081 -0.982,-2.121 -1.791,-3.118c-1.06,-1.305 -2.49,-2.535 -4.291,-3.692l0.079,-1.951l10.193,-3.941l0.498,-0.428l6.256,7.708l-1.4,1.203l-5.318,-6.552l-8.186,3.159Z" style="fill-rule:nonzero;"/><path d="M218.091,136.368c-1.885,-1.611 -4.076,-2.284 -6.574,-2.018c-2.497,0.266 -4.566,1.392 -6.208,3.379c-1.641,1.986 -2.379,4.251 -2.211,6.794c0.167,2.544 1.19,4.621 3.068,6.233c1.879,1.612 4.066,2.285 6.564,2.019c2.497,-0.265 4.57,-1.392 6.218,-3.379c1.648,-1.987 2.389,-4.253 2.221,-6.796c-0.167,-2.543 -1.193,-4.621 -3.078,-6.232Zm1.906,-0.918c1.874,1.858 2.903,4.173 3.085,6.946c0.203,3.085 -0.693,5.826 -2.689,8.225c-1.996,2.399 -4.508,3.76 -7.536,4.082c-3.016,0.321 -5.664,-0.49 -7.945,-2.434c-2.282,-1.944 -3.524,-4.458 -3.727,-7.542c-0.202,-3.071 0.695,-5.809 2.69,-8.215c1.921,-2.316 4.313,-3.667 7.177,-4.054l-0.008,-0.121c4.698,-0.364 8.606,0.378 11.723,2.226c3.118,1.847 6.535,4.181 10.252,7c0.225,0.167 0.443,0.328 0.654,0.483l0.165,2.516c-0.349,-0.235 -0.7,-0.484 -1.052,-0.746c-4.139,-3.143 -7.732,-5.601 -10.778,-7.374c-0.64,-0.382 -1.311,-0.712 -2.011,-0.992Z" style="fill-rule:nonzero;"/><path d="M216.713,200.188c-2.916,-1.795 -5.138,-5.226 -6.667,-10.293c-1.528,-5.067 -3.005,-9.241 -4.431,-12.522c-1.426,-3.281 -3.89,-6.021 -7.392,-8.222l0.975,-1.675c3.946,2.46 6.64,5.382 8.081,8.767c1.441,3.386 2.847,7.355 4.217,11.908c1.371,4.553 2.951,7.662 4.74,9.325l8.726,-14.982l1.535,0.895l-9.784,16.799Z" style="fill-rule:nonzero;"/><path d="M171.346,199.153l-0.037,0.018c-0.255,0.093 -0.504,0.198 -0.748,0.316c-1.942,0.935 -3.299,2.419 -4.072,4.452c-0.773,2.032 -0.737,4.023 0.107,5.973c0.838,1.938 2.239,3.316 4.201,4.134c1.91,0.799 4.252,0.841 7.027,0.127c2.329,-1.745 3.832,-3.641 4.511,-5.687c0.699,-2.1 0.629,-4.12 -0.209,-6.057c-0.844,-1.95 -2.247,-3.282 -4.209,-3.997c-1.962,-0.715 -3.913,-0.604 -5.855,0.331c-0.244,0.118 -0.483,0.248 -0.716,0.39Zm-0.775,-1.739c0.234,-0.142 0.479,-0.275 0.735,-0.398c2.417,-1.165 4.849,-1.3 7.295,-0.403c2.447,0.896 4.195,2.558 5.246,4.986c1.046,2.416 1.122,4.928 0.23,7.537c-0.619,1.81 -1.679,3.433 -3.183,4.869c0.949,-0.057 2.104,0.19 3.465,0.743c1.36,0.552 2.417,1.699 3.171,3.44c0.737,1.705 0.766,3.466 0.084,5.284c-0.681,1.818 -1.895,3.148 -3.641,3.989l-0.659,0.318c-1.746,0.841 -3.493,0.938 -5.241,0.291c-1.748,-0.647 -2.991,-1.823 -3.729,-3.528c-0.754,-1.741 -0.883,-3.335 -0.388,-4.782c0.496,-1.447 1.075,-2.53 1.737,-3.249c-2.013,0.259 -3.87,0.042 -5.571,-0.65c-2.453,-0.997 -4.202,-2.703 -5.248,-5.119c-1.051,-2.428 -1.096,-4.911 -0.136,-7.449c0.96,-2.538 2.649,-4.389 5.066,-5.554c0.245,-0.117 0.5,-0.226 0.767,-0.325Zm12.335,28.449c0.103,-0.034 0.209,-0.078 0.319,-0.131c1.245,-0.6 2.118,-1.551 2.617,-2.851c0.5,-1.301 0.476,-2.582 -0.07,-3.846c-0.542,-1.25 -1.433,-2.125 -2.674,-2.624c-1.242,-0.498 -2.284,-0.715 -3.126,-0.65c-0.425,0.041 -0.873,0.131 -1.344,0.27c-0.408,0.285 -0.765,0.583 -1.073,0.895c-0.599,0.629 -1.126,1.602 -1.581,2.918c-0.456,1.316 -0.413,2.6 0.128,3.851c0.547,1.263 1.449,2.121 2.708,2.575c1.258,0.453 2.51,0.379 3.756,-0.221l0.34,-0.186Z" style="fill-rule:nonzero;"/><path d="M130.545,215.967c-2.088,1.491 -3.381,3.499 -3.879,6.022c-0.499,2.523 -0.056,4.821 1.328,6.893c1.384,2.072 3.303,3.316 5.755,3.731c2.453,0.416 4.723,-0.119 6.809,-1.603c2.086,-1.485 3.379,-3.488 3.877,-6.012c0.498,-2.523 0.056,-4.824 -1.327,-6.903c-1.383,-2.079 -3.3,-3.326 -5.753,-3.741c-2.453,-0.416 -4.723,0.122 -6.81,1.613Zm-0.296,-2.089c2.317,-1.424 4.813,-1.91 7.488,-1.457c2.974,0.504 5.295,2.014 6.962,4.529c1.668,2.516 2.199,5.303 1.595,8.363c-0.602,3.047 -2.163,5.473 -4.683,7.279c-2.521,1.807 -5.269,2.458 -8.243,1.954c-2.962,-0.502 -5.279,-2.011 -6.953,-4.527c-1.612,-2.423 -2.17,-5.091 -1.676,-8.003l-0.117,-0.02c1.066,-4.715 2.939,-8.4 5.62,-11.052c2.681,-2.653 5.911,-5.49 9.69,-8.512c0.225,-0.184 0.442,-0.362 0.651,-0.535l2.427,0.411c-0.327,0.292 -0.668,0.581 -1.021,0.868c-4.21,3.364 -7.61,6.346 -10.2,8.945c-0.552,0.545 -1.065,1.13 -1.54,1.757Z" style="fill-rule:nonzero;"/></g><path d="M150,55.637l-10.776,-13.291l21.552,0l-10.776,13.291Z" style="fill:#fff;"/><path d="M150,55.637l-10.776,-13.291l21.552,0l-10.776,13.291Z" style="fill:#f02800;"/><circle cx="150" cy="150" r="7.379" style="fill:#fff;"/><path d="M150,142.621c4.073,0 7.379,3.306 7.379,7.379c0,4.073 -3.306,7.379 -7.379,7.379c-4.073,0 -7.379,-3.306 -7.379,-7.379c0,-4.073 3.306,-7.379 7.379,-7.379Zm0,10c-1.446,0 -2.621,-1.175 -2.621,-2.621c0,-1.446 1.175,-2.621 2.621,-2.621c1.446,0 2.621,1.175 2.621,2.621c0,1.446 -1.175,2.621 -2.621,2.621Z" style="fill:#595959;"/></svg>