<?xml version="1.0" encoding="UTF-8" standalone="no"?><!DOCTYPE svg PUBLIC "-//W3C//DTD SVG 1.1//EN" "http://www.w3.org/Graphics/SVG/1.1/DTD/svg11.dtd"><svg width="100%" height="100%" viewBox="0 0 300 300" version="1.1" xmlns="http://www.w3.org/2000/svg" xmlns:xlink="http://www.w3.org/1999/xlink" xml:space="preserve" xmlns:serif="http://www.serif.com/" style="fill-rule:evenodd;clip-rule:evenodd;stroke-linejoin:round;stroke-miterlimit:2;"><g><g><path d="M108.244,119.985c-7.073,4.857 -15.71,7.717 -25.049,7.717c-24.075,0 -43.485,-19.008 -43.485,-42.248c0,-23.24 19.41,-42.248 43.485,-42.248c19.831,0 36.497,12.896 41.757,30.432c-2.408,1.653 -4.634,3.537 -6.646,5.619c-3.028,-16.062 -17.606,-28.254 -35.111,-28.254c-19.697,0 -35.688,15.437 -35.688,34.451c0,19.014 15.991,34.451 35.688,34.451c8.972,0 17.175,-3.203 23.447,-8.487c0.232,2.95 0.776,5.817 1.602,8.567Z" style="fill:#f2f2f2;"/><path d="M113.559,131.212c1.647,2.453 3.55,4.731 5.67,6.796l-73.011,0c-12.815,0 -23.218,10.043 -23.218,22.413l14.647,44.826c0,12.37 7.872,22.413 17.568,22.413l41.989,0l0.472,1.446c0.064,1.71 0.241,3.403 0.539,5.088l0.049,0.261l-43.049,0c-12.65,0 -23.833,-12.105 -24.343,-28.064l-14.332,-43.859c-0.223,-0.682 -0.336,-1.394 -0.336,-2.111c0,-16.054 13.383,-29.209 30.014,-29.209l67.341,0Zm26.819,18.167c2.582,0.567 5.25,0.911 7.985,1.009c0.433,1.148 0.793,2.329 1.076,3.54l-7.04,0c-0.501,-1.6 -1.183,-3.124 -2.021,-4.549Z" style="fill:#f2f2f2;"/></g><g><path d="M175.048,73.638c5.26,-17.536 21.926,-30.432 41.757,-30.432c24.075,0 43.485,19.008 43.485,42.248c0,23.24 -19.41,42.248 -43.485,42.248c-9.339,0 -17.976,-2.86 -25.049,-7.717c0.826,-2.752 1.37,-5.618 1.602,-8.567c6.272,5.284 14.475,8.487 23.447,8.487c19.697,0 35.688,-15.437 35.688,-34.451c0,-19.014 -15.991,-34.451 -35.688,-34.451c-17.505,0 -32.083,12.192 -35.111,28.254c-2.012,-2.082 -4.238,-3.966 -6.646,-5.619Z" style="fill:#f2f2f2;"/><path d="M186.441,131.212l67.341,0c16.631,0 30.014,13.155 30.014,29.209c0,0.717 -0.113,1.429 -0.336,2.111l-14.332,43.859c-0.51,15.959 -11.693,28.064 -24.343,28.064l-43.049,0c0.328,-1.723 0.529,-3.51 0.588,-5.349l0.472,-1.446l41.989,0c9.696,0 17.568,-10.043 17.568,-22.413l14.647,-44.826c0,-12.37 -10.403,-22.413 -23.218,-22.413l-73.011,0c2.121,-2.066 4.023,-4.343 5.67,-6.796Zm-26.819,18.167c-0.839,1.426 -1.52,2.949 -2.021,4.549l-7.04,0c0.283,-1.21 0.643,-2.391 1.076,-3.54c2.734,-0.099 5.403,-0.442 7.985,-1.009Z" style="fill:#f2f2f2;"/></g></g><g><g><path d="M150,65.921c-24.075,0 -43.485,19.008 -43.485,42.248c0,23.24 19.41,42.248 43.485,42.248c24.075,0 43.485,-19.008 43.485,-42.248c0,-23.24 -19.41,-42.248 -43.485,-42.248Zm0,7.797c19.697,0 35.688,15.437 35.688,34.451c0,19.014 -15.991,34.451 -35.688,34.451c-19.697,0 -35.688,-15.437 -35.688,-34.451c0,-19.014 15.991,-34.451 35.688,-34.451Z" style="fill:#f2f2f2;"/><path d="M97.676,229.106l-14.331,-43.859c-0.223,-0.682 -0.336,-1.394 -0.336,-2.111c0,-16.053 13.383,-29.208 30.013,-29.208c0,0 73.956,0 73.956,0c16.63,0 30.013,13.155 30.013,29.208c0,0.717 -0.113,1.429 -0.336,2.111l-14.331,43.859c-0.51,15.96 -11.694,28.064 -24.344,28.064c0,0 -55.96,0 -55.96,0c-12.65,0 -23.834,-12.104 -24.344,-28.064Zm112.52,-45.97c0,-12.37 -10.404,-22.413 -23.218,-22.413l-73.956,0c-12.814,0 -23.218,10.043 -23.218,22.413l14.648,44.826c0,12.37 7.872,22.413 17.568,22.413l55.96,0c9.696,0 17.568,-10.043 17.568,-22.413l14.648,-44.826Z" style="fill:#f2f2f2;"/></g></g></svg>