<?xml version="1.0" encoding="UTF-8" standalone="no"?><!DOCTYPE svg PUBLIC "-//W3C//DTD SVG 1.1//EN" "http://www.w3.org/Graphics/SVG/1.1/DTD/svg11.dtd"><svg width="100%" height="100%" viewBox="0 0 300 300" version="1.1" xmlns="http://www.w3.org/2000/svg" xmlns:xlink="http://www.w3.org/1999/xlink" xml:space="preserve" xmlns:serif="http://www.serif.com/" style="fill-rule:evenodd;clip-rule:evenodd;stroke-linejoin:round;stroke-miterlimit:2;"><g id="Pre-work"><path d="M129.535,52.017l8.387,-17.597c0.262,-0.549 0.794,-0.92 1.401,-0.976c7.103,-0.65 14.251,-0.65 21.354,0c0.607,0.056 1.139,0.427 1.401,0.976l8.387,17.597c3.652,0.762 7.259,1.729 10.803,2.894l16.062,-11.045c0.502,-0.345 1.148,-0.4 1.701,-0.145c6.477,2.988 12.667,6.562 18.494,10.677c0.497,0.352 0.772,0.939 0.724,1.546l-1.534,19.433c2.782,2.486 5.422,5.127 7.908,7.908l19.433,-1.534c0.607,-0.048 1.194,0.227 1.546,0.724c4.115,5.827 7.689,12.017 10.677,18.494c0.255,0.553 0.2,1.199 -0.145,1.701l-11.045,16.062c1.165,3.544 2.132,7.151 2.894,10.803l17.597,8.387c0.549,0.262 0.92,0.794 0.976,1.401c0.65,7.103 0.65,14.251 0,21.354c-0.056,0.607 -0.427,1.139 -0.976,1.401l-17.597,8.387c-0.762,3.652 -1.729,7.259 -2.894,10.803l11.045,16.062c0.345,0.502 0.4,1.148 0.145,1.701c-2.988,6.477 -6.562,12.667 -10.677,18.494c-0.352,0.497 -0.939,0.772 -1.546,0.724l-19.433,-1.534c-2.486,2.782 -5.127,5.422 -7.908,7.908l1.534,19.433c0.048,0.607 -0.227,1.194 -0.724,1.546c-5.827,4.115 -12.017,7.689 -18.494,10.677c-0.553,0.255 -1.199,0.2 -1.701,-0.145l-16.062,-11.045c-3.544,1.165 -7.151,2.132 -10.803,2.894l-8.387,17.597c-0.262,0.549 -0.794,0.92 -1.401,0.976c-7.103,0.65 -14.251,0.65 -21.354,0c-0.607,-0.056 -1.139,-0.427 -1.401,-0.976l-8.387,-17.597c-3.652,-0.762 -7.259,-1.729 -10.803,-2.894l-16.062,11.045c-0.502,0.345 -1.148,0.4 -1.701,0.145c-6.477,-2.988 -12.667,-6.562 -18.494,-10.677c-0.497,-0.352 -0.772,-0.939 -0.724,-1.546l1.534,-19.433c-2.782,-2.486 -5.422,-5.127 -7.908,-7.908l-19.433,1.534c-0.607,0.048 -1.194,-0.227 -1.546,-0.724c-4.115,-5.827 -7.689,-12.017 -10.677,-18.494c-0.255,-0.553 -0.2,-1.199 0.145,-1.701l11.045,-16.062c-1.165,-3.544 -2.132,-7.151 -2.894,-10.803l-17.597,-8.387c-0.549,-0.262 -0.92,-0.794 -0.976,-1.401c-0.65,-7.103 -0.65,-14.251 0,-21.354c0.056,-0.607 0.427,-1.139 0.976,-1.401l17.597,-8.387c0.762,-3.652 1.729,-7.259 2.894,-10.803l-11.045,-16.062c-0.345,-0.502 -0.4,-1.148 -0.145,-1.701c2.988,-6.477 6.562,-12.667 10.677,-18.494c0.352,-0.497 0.939,-0.772 1.546,-0.724l19.433,1.534c2.486,-2.782 5.127,-5.422 7.908,-7.908l-1.534,-19.433c-0.048,-0.607 0.227,-1.194 0.724,-1.546c5.827,-4.115 12.017,-7.689 18.494,-10.677c0.553,-0.255 1.199,-0.2 1.701,0.145l16.062,11.045c3.544,-1.165 7.151,-2.132 10.803,-2.894Zm30.985,-16.854c-6.999,-0.641 -14.041,-0.641 -21.04,0l-8.757,18.372c-4.153,0.83 -8.249,1.928 -12.261,3.285l-16.77,-11.532c-6.382,2.944 -12.481,6.466 -18.221,10.52l1.602,20.29c-3.182,2.795 -6.18,5.793 -8.975,8.975l-20.29,-1.602c-4.054,5.74 -7.576,11.839 -10.52,18.221l11.532,16.77c-1.357,4.012 -2.455,8.108 -3.285,12.261l-18.372,8.757c-0.641,6.999 -0.641,14.041 0,21.04l18.372,8.757c0.83,4.153 1.928,8.249 3.285,12.261l-11.532,16.77c2.944,6.382 6.466,12.481 10.52,18.221l20.29,-1.602c2.795,3.182 5.793,6.18 8.975,8.975l-1.602,20.29c5.74,4.054 11.839,7.576 18.221,10.52l16.77,-11.532c4.012,1.357 8.108,2.455 12.261,3.285l8.757,18.372c6.999,0.641 14.041,0.641 21.04,0l8.757,-18.372c4.153,-0.83 8.249,-1.928 12.261,-3.285l16.77,11.532c6.382,-2.944 12.481,-6.466 18.221,-10.52l-1.602,-20.29c3.182,-2.795 6.18,-5.793 8.975,-8.975l20.29,1.602c4.054,-5.74 7.576,-11.839 10.52,-18.221l-11.532,-16.77c1.357,-4.012 2.455,-8.108 3.285,-12.261l18.372,-8.757c0.641,-6.999 0.641,-14.041 0,-21.04l-18.372,-8.757c-0.83,-4.153 -1.928,-8.249 -3.285,-12.261l11.532,-16.77c-2.944,-6.382 -6.466,-12.481 -10.52,-18.221l-20.29,1.602c-2.795,-3.182 -5.793,-6.18 -8.975,-8.975l1.602,-20.29c-5.74,-4.054 -11.839,-7.576 -18.221,-10.52l-16.77,11.532c-4.012,-1.357 -8.108,-2.455 -12.261,-3.285l-8.757,-18.372Zm-10.52,78.614c19.992,0 36.223,16.231 36.223,36.223c0,19.992 -16.231,36.223 -36.223,36.223c-19.992,0 -36.223,-16.231 -36.223,-36.223c0,-19.992 16.231,-36.223 36.223,-36.223Zm0,1.726c19.039,0 34.497,15.458 34.497,34.497c0,19.039 -15.458,34.497 -34.497,34.497c-19.039,0 -34.497,-15.458 -34.497,-34.497c0,-19.039 15.458,-34.497 34.497,-34.497Z" style="fill:#f2f2f2;"/></g></svg>